<svg width="25" height="25" viewBox="0 0 25 25" fill="none" xmlns="http://www.w3.org/2000/svg">
<mask id="mask0_1568_475" style="mask-type:alpha" maskUnits="userSpaceOnUse" x="0" y="0" width="25" height="25">
<rect x="0.128906" y="0.0385742" width="24" height="24" fill="#D9D9D9"/>
</mask>
<g mask="url(#mask0_1568_475)">
<path d="M4.12891 19.0386V17.0386H6.12891V10.0386C6.12891 8.65524 6.54557 7.42607 7.37891 6.35107C8.21224 5.27607 9.29557 4.57191 10.6289 4.23857V3.53857C10.6289 3.12191 10.7747 2.76774 11.0664 2.47607C11.3581 2.18441 11.7122 2.03857 12.1289 2.03857C12.5456 2.03857 12.8997 2.18441 13.1914 2.47607C13.4831 2.76774 13.6289 3.12191 13.6289 3.53857V4.23857C14.9622 4.57191 16.0456 5.27607 16.8789 6.35107C17.7122 7.42607 18.1289 8.65524 18.1289 10.0386V17.0386H20.1289V19.0386H4.12891ZM12.1289 22.0386C11.5789 22.0386 11.1081 21.8427 10.7164 21.4511C10.3247 21.0594 10.1289 20.5886 10.1289 20.0386H14.1289C14.1289 20.5886 13.9331 21.0594 13.5414 21.4511C13.1497 21.8427 12.6789 22.0386 12.1289 22.0386ZM8.12891 17.0386H16.1289V10.0386C16.1289 8.93857 15.7372 7.99691 14.9539 7.21357C14.1706 6.43024 13.2289 6.03857 12.1289 6.03857C11.0289 6.03857 10.0872 6.43024 9.30391 7.21357C8.52057 7.99691 8.12891 8.93857 8.12891 10.0386V17.0386Z" fill="#1C1B1F"/>
</g>
</svg>
