<svg width="25" height="25" viewBox="0 0 25 25" fill="none" xmlns="http://www.w3.org/2000/svg">
<mask id="mask0_1568_481" style="mask-type:alpha" maskUnits="userSpaceOnUse" x="0" y="0" width="25" height="25">
<rect x="0.128906" y="0.0385742" width="24" height="24" fill="#D9D9D9"/>
</mask>
<g mask="url(#mask0_1568_481)">
<path d="M4.1293 19.0386V17.0386H6.1293V10.0386C6.1293 9.48857 6.20013 8.94691 6.3418 8.41357C6.48346 7.88024 6.69596 7.37191 6.9793 6.88857L8.4793 8.38857C8.36263 8.65524 8.27513 8.92607 8.2168 9.20107C8.15846 9.47607 8.1293 9.75524 8.1293 10.0386V17.0386H14.3293L1.5293 4.23857L2.9293 2.83857L21.3293 21.2386L19.9293 22.6386L16.2793 19.0386H4.1293ZM18.1293 15.1886L16.1293 13.1886V10.0386C16.1293 8.93857 15.7376 7.99691 14.9543 7.21357C14.171 6.43024 13.2293 6.03857 12.1293 6.03857C11.696 6.03857 11.2793 6.10524 10.8793 6.23857C10.4793 6.37191 10.1126 6.57191 9.7793 6.83857L8.3293 5.38857C8.66263 5.12191 9.02096 4.88857 9.4043 4.68857C9.78763 4.48857 10.196 4.33857 10.6293 4.23857V3.53857C10.6293 3.12191 10.7751 2.76774 11.0668 2.47607C11.3585 2.18441 11.7126 2.03857 12.1293 2.03857C12.546 2.03857 12.9001 2.18441 13.1918 2.47607C13.4835 2.76774 13.6293 3.12191 13.6293 3.53857V4.23857C14.9626 4.57191 16.046 5.27607 16.8793 6.35107C17.7126 7.42607 18.1293 8.65524 18.1293 10.0386V15.1886ZM12.1293 22.0386C11.5793 22.0386 11.1085 21.8427 10.7168 21.4511C10.3251 21.0594 10.1293 20.5886 10.1293 20.0386H14.1293C14.1293 20.5886 13.9335 21.0594 13.5418 21.4511C13.1501 21.8427 12.6793 22.0386 12.1293 22.0386Z" fill="#1C1B1F"/>
</g>
</svg>
