<svg xmlns="http://www.w3.org/2000/svg" width="21" height="21" fill="none" viewBox="0 0 21 21">
  <mask id="a" width="21" height="21" x="0" y="0" maskUnits="userSpaceOnUse" style="mask-type:alpha">
    <path fill="#D9D9D9" d="M0 0h21v21H0z"/>
  </mask>
  <g mask="url(#a)">
    <path fill="#767676" d="M5.688 17.5c-1.328 0-2.461-.46-3.402-1.378-.94-.919-1.411-2.042-1.411-3.369a4.85 4.85 0 0 1 1.028-3.04 4.548 4.548 0 0 1 2.69-1.707c.249-1.05.868-2.049 1.86-2.997.992-.948 2.05-1.422 3.172-1.422.481 0 .893.172 1.236.514.343.343.514.755.514 1.236v5.294l1.4-1.356L14 10.5 10.5 14 7 10.5l1.225-1.225 1.4 1.356V5.337c-1.108.205-1.969.74-2.581 1.608-.613.868-.919 1.761-.919 2.68h-.438a2.95 2.95 0 0 0-2.165.897 2.95 2.95 0 0 0-.897 2.165c0 .846.299 1.568.897 2.166a2.95 2.95 0 0 0 2.166.897h10.5c.612 0 1.13-.212 1.553-.634.422-.423.634-.941.634-1.554 0-.612-.212-1.13-.634-1.553a2.112 2.112 0 0 0-1.553-.634h-1.313v-1.75c0-.7-.16-1.353-.481-1.958a4.911 4.911 0 0 0-1.269-1.542V4.09a5.973 5.973 0 0 1 2.56 2.264c.626.999.94 2.089.94 3.27a3.82 3.82 0 0 1 2.505 1.302c.663.75.995 1.63.995 2.635 0 1.094-.383 2.024-1.148 2.79-.766.765-1.696 1.148-2.79 1.148h-10.5Z"/>
  </g>
</svg>
