<svg xmlns="http://www.w3.org/2000/svg" width="14" height="14" fill="none" viewBox="0 0 14 14">
  <mask id="a" width="14" height="14" x="0" y="0" maskUnits="userSpaceOnUse" style="mask-type:alpha">
    <path fill="#D9D9D9" d="M0 0h14v14H0z"/>
  </mask>
  <g mask="url(#a)">
    <path fill="#767676" d="m5.6 9.1.817-.831L5.147 7l1.27-1.269L5.6 4.9 3.5 7l2.1 2.1Zm2.8 0L10.5 7 8.4 4.9l-.817.831L8.853 7l-1.27 1.269.817.831Zm-5.483 3.15a1.12 1.12 0 0 1-.824-.343 1.123 1.123 0 0 1-.343-.824V2.917c0-.321.114-.596.343-.824a1.12 1.12 0 0 1 .824-.343h8.166c.321 0 .596.114.824.343.229.228.343.503.343.824v8.166c0 .321-.114.596-.343.824a1.123 1.123 0 0 1-.824.343H2.917Zm0-1.167h8.166V2.917H2.917v8.166Z"/>
  </g>
</svg>
