<svg width="25" height="25" viewBox="0 0 25 25" fill="none" xmlns="http://www.w3.org/2000/svg">
<mask id="mask0_1584_475" style="mask-type:alpha" maskUnits="userSpaceOnUse" x="0" y="0" width="25" height="25">
<rect x="0.015625" y="0.474121" width="24" height="24" fill="#D9D9D9"/>
</mask>
<g mask="url(#mask0_1584_475)">
<path d="M5.01483 21.4741C4.16483 21.4741 3.56067 21.095 3.20233 20.3366C2.844 19.5783 2.9315 18.8741 3.46483 18.2241L9.01483 11.4741V5.47412H8.01483C7.7315 5.47412 7.494 5.37829 7.30233 5.18662C7.11067 4.99495 7.01483 4.75745 7.01483 4.47412C7.01483 4.19079 7.11067 3.95329 7.30233 3.76162C7.494 3.56995 7.7315 3.47412 8.01483 3.47412H16.0148C16.2982 3.47412 16.5357 3.56995 16.7273 3.76162C16.919 3.95329 17.0148 4.19079 17.0148 4.47412C17.0148 4.75745 16.919 4.99495 16.7273 5.18662C16.5357 5.37829 16.2982 5.47412 16.0148 5.47412H15.0148V11.4741L20.5648 18.2241C21.0982 18.8741 21.1857 19.5783 20.8273 20.3366C20.469 21.095 19.8648 21.4741 19.0148 21.4741H5.01483ZM7.01483 18.4741H17.0148L13.6148 14.4741H10.4148L7.01483 18.4741ZM5.01483 19.4741H19.0148L13.0148 12.1741V5.47412H11.0148V12.1741L5.01483 19.4741Z" fill="#1C1B1F"/>
</g>
</svg>
