<svg width="25" height="25" viewBox="0 0 25 25" fill="none" xmlns="http://www.w3.org/2000/svg">
<mask id="mask0_1582_475" style="mask-type:alpha" maskUnits="userSpaceOnUse" x="0" y="0" width="25" height="25">
<rect x="0.015625" y="0.474121" width="24" height="24" fill="#D9D9D9"/>
</mask>
<g mask="url(#mask0_1582_475)">
<path d="M4.01562 20.4741C3.46562 20.4741 2.99479 20.2783 2.60313 19.8866C2.21146 19.495 2.01562 19.0241 2.01562 18.4741V6.47412C2.01562 5.92412 2.21146 5.45329 2.60313 5.06162C2.99479 4.66995 3.46562 4.47412 4.01562 4.47412H10.0156L12.0156 6.47412H20.0156C20.5656 6.47412 21.0365 6.66995 21.4281 7.06162C21.8198 7.45329 22.0156 7.92412 22.0156 8.47412V18.4741C22.0156 19.0241 21.8198 19.495 21.4281 19.8866C21.0365 20.2783 20.5656 20.4741 20.0156 20.4741H4.01562ZM4.01562 18.4741H20.0156V8.47412H11.1906L9.19063 6.47412H4.01562V18.4741Z" fill="#1C1B1F"/>
</g>
</svg>
