<svg width="515" height="458" viewBox="0 0 515 458" fill="none" xmlns="http://www.w3.org/2000/svg">
<path d="M167.672 51.6918C176.624 41.0322 175.233 25.1399 164.564 16.1954C153.895 7.25094 137.989 8.64133 129.037 19.3009L17.3705 152.263C8.41821 162.923 9.80982 178.815 20.4788 187.759C31.1477 196.704 47.0539 195.314 56.0062 184.654L167.672 51.6918Z" fill="#75163F"/>
<path d="M166.551 286.572C175.503 297.231 174.112 313.124 163.443 322.068C152.774 331.013 136.868 329.622 127.915 318.963L16.2494 186.001C7.29704 175.341 8.68864 159.449 19.3576 150.504C30.0265 141.56 45.9327 142.95 54.885 153.61L166.551 286.572Z" fill="#75163F"/>
<path d="M82.5801 165.498L163.93 68.6343" stroke="black" stroke-width="3" stroke-linecap="round"/>
<path d="M96.1328 165.449L170.307 77.1274" stroke="black" stroke-width="3" stroke-linecap="round"/>
<path d="M107.613 165.674L176.898 83.1768" stroke="black" stroke-width="3" stroke-linecap="round"/>
<path d="M82.377 170.947L163.726 267.811" stroke="black" stroke-width="3" stroke-linecap="round"/>
<path d="M95.9297 170.997L170.104 259.318" stroke="black" stroke-width="3" stroke-linecap="round"/>
<path d="M107.412 170.77L176.697 253.268" stroke="black" stroke-width="3" stroke-linecap="round"/>
<path d="M318.778 45.543L305.241 40.4145C293.665 36.0292 280.563 41.7875 275.975 53.276L182.588 287.167C178.001 298.656 183.666 311.524 195.241 315.909L208.779 321.038C220.354 325.423 233.457 319.665 238.044 308.176L331.432 74.2853C336.019 62.7968 330.354 49.9284 318.778 45.543Z" fill="#75163F"/>
<path d="M271.926 223.324L216.42 202.298L191.187 265.501L246.694 286.527L271.926 223.324Z" fill="#F4B8D4"/>
<path d="M323.123 95.9725L267.166 74.7764L253.781 108.304L309.737 129.501L323.123 95.9725Z" fill="#F4B8D4"/>
<path d="M346.84 53.3715C337.887 42.7119 339.279 26.8196 349.948 17.8751C360.617 8.93063 376.523 10.321 385.475 20.9806L497.141 153.943C506.094 164.602 504.702 180.495 494.033 189.439C483.364 198.384 467.458 196.993 458.506 186.334L346.84 53.3715Z" fill="#75163F"/>
<path d="M347.961 288.252C339.008 298.911 340.4 314.803 351.069 323.748C361.738 332.692 377.644 331.302 386.596 320.642L498.262 187.68C507.215 177.021 505.823 161.128 495.154 152.184C484.485 143.239 468.579 144.63 459.627 155.289L347.961 288.252Z" fill="#75163F"/>
<path d="M431.932 167.178L350.582 70.314" stroke="black" stroke-width="3" stroke-linecap="round"/>
<path d="M418.38 167.128L344.205 78.8071" stroke="black" stroke-width="3" stroke-linecap="round"/>
<path d="M406.898 167.354L337.613 84.8564" stroke="black" stroke-width="3" stroke-linecap="round"/>
<path d="M432.134 172.627L350.785 269.491" stroke="black" stroke-width="3" stroke-linecap="round"/>
<path d="M418.581 172.676L344.406 260.997" stroke="black" stroke-width="3" stroke-linecap="round"/>
<path d="M407.101 172.45L337.816 254.948" stroke="black" stroke-width="3" stroke-linecap="round"/>
<path d="M101.922 399.668H85.0864C84.9671 398.276 84.6487 397.014 84.1315 395.88C83.6339 394.747 82.9373 393.773 82.0418 392.958C81.1659 392.123 80.1017 391.486 78.8476 391.049C77.594 390.591 76.1711 390.363 74.5791 390.363C71.7934 390.363 69.4352 391.039 67.5047 392.391C65.5943 393.743 64.1418 395.682 63.1465 398.207C62.1714 400.732 61.6839 403.764 61.6839 407.303C61.6839 411.041 62.1815 414.173 63.1762 416.698C64.1911 419.203 65.6537 421.092 67.5641 422.364C69.475 423.617 71.7732 424.243 74.4597 424.243C75.9924 424.243 77.3653 424.055 78.5791 423.677C79.793 423.279 80.8476 422.713 81.7431 421.977C82.6386 421.241 83.3649 420.356 83.9225 419.322C84.4997 418.269 84.8875 417.085 85.0864 415.773L101.922 415.892C101.723 418.477 100.997 421.112 99.7429 423.796C98.4893 426.461 96.7084 428.926 94.4001 431.192C92.1115 433.439 89.2753 435.249 85.8923 436.62C82.5097 437.992 78.5791 438.678 74.1016 438.678C68.4899 438.678 63.4547 437.475 58.9974 435.07C54.5595 432.664 51.0471 429.125 48.4601 424.452C45.893 419.78 44.6094 414.063 44.6094 407.303C44.6094 400.503 45.9228 394.777 48.5497 390.125C51.1765 385.452 54.7187 381.923 59.1761 379.537C63.6341 377.131 68.6092 375.928 74.1016 375.928C77.9622 375.928 81.5145 376.455 84.758 377.509C88.0021 378.563 90.8478 380.103 93.2956 382.131C95.7434 384.14 97.7132 386.615 99.206 389.558C100.698 392.5 101.604 395.871 101.922 399.668ZM185.487 407.303C185.487 414.103 184.164 419.839 181.517 424.512C178.87 429.164 175.298 432.694 170.801 435.099C166.303 437.486 161.288 438.678 155.756 438.678C150.184 438.678 145.149 437.475 140.651 435.07C136.174 432.644 132.612 429.105 129.965 424.452C127.338 419.78 126.025 414.063 126.025 407.303C126.025 400.503 127.338 394.777 129.965 390.125C132.612 385.452 136.174 381.923 140.651 379.537C145.149 377.131 150.184 375.928 155.756 375.928C161.288 375.928 166.303 377.131 170.801 379.537C175.298 381.923 178.87 385.452 181.517 390.125C184.164 394.777 185.487 400.503 185.487 407.303ZM168.413 407.303C168.413 403.644 167.925 400.563 166.95 398.058C165.995 395.533 164.572 393.624 162.681 392.331C160.81 391.019 158.502 390.363 155.756 390.363C153.01 390.363 150.691 391.019 148.801 392.331C146.93 393.624 145.507 395.533 144.532 398.058C143.577 400.563 143.099 403.644 143.099 407.303C143.099 410.962 143.577 414.054 144.532 416.579C145.507 419.084 146.93 420.992 148.801 422.305C150.691 423.597 153.01 424.243 155.756 424.243C158.502 424.243 160.81 423.597 162.681 422.305C164.572 420.992 165.995 419.084 166.95 416.579C167.925 414.054 168.413 410.962 168.413 407.303ZM209.978 376.763H230.634L244.843 411.359H245.56L259.768 376.763H280.424V437.843H264.186V402.531H263.708L250.097 437.366H240.306L226.694 402.293H226.216V437.843H209.978V376.763ZM321.699 376.763V437.843H305.102V376.763H321.699ZM369.898 437.843H346.376V376.763H369.659C375.948 376.763 381.381 377.986 385.958 380.431C390.555 382.857 394.097 386.356 396.585 390.93C399.092 395.483 400.345 400.941 400.345 407.303C400.345 413.666 399.102 419.134 396.614 423.706C394.127 428.26 390.605 431.759 386.048 434.204C381.49 436.631 376.107 437.843 369.898 437.843ZM362.973 423.766H369.301C372.326 423.766 374.903 423.279 377.033 422.305C379.182 421.331 380.814 419.65 381.928 417.265C383.062 414.878 383.63 411.558 383.63 407.303C383.63 403.048 383.052 399.728 381.898 397.342C380.764 394.956 379.092 393.276 376.883 392.301C374.694 391.327 372.008 390.84 368.823 390.84H362.973V423.766ZM424.836 437.843V376.763H468.896V390.125H441.433V400.623H466.627V413.984H441.433V424.482H468.777V437.843H424.836Z" fill="#75163F"/>
</svg>
