<svg xmlns="http://www.w3.org/2000/svg" width="29" height="29" fill="none" viewBox="0 0 29 29">
  <mask id="a" width="29" height="29" x="0" y="0" maskUnits="userSpaceOnUse" style="mask-type:alpha">
    <path fill="#D9D9D9" d="M0 0h29v29H0z"/>
  </mask>
  <g mask="url(#a)">
    <path fill="#6C6C6C" d="m11.176 26.583-.483-3.866a4.587 4.587 0 0 1-.74-.363 9.94 9.94 0 0 1-.68-.453l-3.595 1.51-3.323-5.74 3.112-2.355a2.885 2.885 0 0 1-.03-.408v-.816c0-.13.01-.267.03-.408l-3.112-2.356 3.323-5.74 3.595 1.51c.222-.16.453-.311.695-.452a6.08 6.08 0 0 1 .725-.363l.483-3.866h6.646l.483 3.866c.262.101.509.222.74.363.232.14.459.292.68.453l3.595-1.51 3.323 5.74-3.111 2.355c.02.141.03.277.03.408v.816c0 .13-.02.267-.06.408l3.11 2.356-3.322 5.74-3.565-1.511a8.242 8.242 0 0 1-.695.453 6.089 6.089 0 0 1-.725.363l-.483 3.866h-6.646Zm2.115-2.416h2.386l.423-3.203a6.77 6.77 0 0 0 1.737-.71 7.215 7.215 0 0 0 1.465-1.132l2.991 1.238 1.178-2.054-2.598-1.963c.1-.282.171-.58.212-.892a7.423 7.423 0 0 0 0-1.903 4.206 4.206 0 0 0-.212-.89l2.598-1.964-1.178-2.054-2.99 1.268a6.709 6.709 0 0 0-1.466-1.163 6.772 6.772 0 0 0-1.737-.71l-.392-3.202H13.32l-.423 3.202a6.774 6.774 0 0 0-1.737.71 7.222 7.222 0 0 0-1.465 1.133L6.706 8.64l-1.179 2.054 2.598 1.933c-.1.302-.17.604-.211.906-.04.302-.06.625-.06.967 0 .322.02.634.06.936.04.303.11.605.211.907l-2.598 1.963 1.178 2.054 2.991-1.268c.443.463.931.85 1.465 1.163a6.772 6.772 0 0 0 1.737.71l.393 3.202Zm1.269-5.438c1.168 0 2.165-.413 2.99-1.238.826-.826 1.239-1.823 1.239-2.991 0-1.168-.413-2.165-1.239-2.99-.825-.826-1.822-1.24-2.99-1.24-1.189 0-2.19.414-3.006 1.24-.816.825-1.223 1.822-1.223 2.99 0 1.168.407 2.165 1.223 2.99.816.826 1.817 1.24 3.006 1.24Z"/>
  </g>
</svg>
