<svg xmlns="http://www.w3.org/2000/svg" width="29" height="29" fill="none" viewBox="0 0 29 29">
  <mask id="a" width="29" height="29" x="0" y="0" maskUnits="userSpaceOnUse" style="mask-type:alpha">
    <path fill="#D9D9D9" d="M0 0h29v29H0z"/>
  </mask>
  <g mask="url(#a)">
    <path fill="#6C6C6C" d="M1.209 24.167v-3.384c0-.684.176-1.314.529-1.888a3.524 3.524 0 0 1 1.404-1.314 17.942 17.942 0 0 1 3.807-1.404 16.628 16.628 0 0 1 3.927-.469c1.329 0 2.638.156 3.927.469 1.289.312 2.557.78 3.806 1.404.584.302 1.052.74 1.405 1.314a3.54 3.54 0 0 1 .528 1.888v3.384H1.21Zm21.75 0v-3.625c0-.886-.247-1.737-.74-2.553-.494-.816-1.193-1.515-2.1-2.1a15.117 15.117 0 0 1 5.438 1.692c.725.403 1.279.851 1.661 1.345.383.493.574 1.032.574 1.616v3.625H22.96ZM10.876 14.5c-1.33 0-2.467-.473-3.414-1.42-.946-.946-1.42-2.084-1.42-3.413 0-1.33.474-2.467 1.42-3.414.947-.946 2.084-1.42 3.414-1.42 1.329 0 2.467.474 3.413 1.42.947.947 1.42 2.085 1.42 3.414 0 1.329-.473 2.467-1.42 3.413-.946.947-2.084 1.42-3.413 1.42Zm12.083-4.833c0 1.329-.473 2.467-1.42 3.413-.946.947-2.084 1.42-3.413 1.42-.222 0-.504-.025-.846-.075a7.392 7.392 0 0 1-.846-.167 7.187 7.187 0 0 0 1.254-2.144 6.966 6.966 0 0 0 .438-2.447c0-.846-.146-1.662-.438-2.447a7.186 7.186 0 0 0-1.254-2.145c.282-.1.564-.166.846-.196.282-.03.564-.046.846-.046 1.329 0 2.467.474 3.413 1.42.947.947 1.42 2.085 1.42 3.414ZM3.626 21.75h14.5v-.967a1.177 1.177 0 0 0-.604-1.027 15.745 15.745 0 0 0-3.293-1.223 14.017 14.017 0 0 0-6.706 0c-1.108.272-2.206.68-3.293 1.223a1.176 1.176 0 0 0-.604 1.027v.967Zm7.25-9.667c.664 0 1.233-.236 1.706-.71.474-.473.71-1.042.71-1.706 0-.665-.236-1.234-.71-1.707a2.327 2.327 0 0 0-1.706-.71c-.665 0-1.234.237-1.707.71a2.327 2.327 0 0 0-.71 1.707c0 .664.237 1.233.71 1.707.473.473 1.042.71 1.707.71Z"/>
  </g>
</svg>
