<svg xmlns="http://www.w3.org/2000/svg" width="29" height="29" fill="none" viewBox="0 0 29 29">
  <mask id="a" width="29" height="29" x="0" y="0" maskUnits="userSpaceOnUse" style="mask-type:alpha">
    <path fill="#D9D9D9" d="M0 0h29v29H0z"/>
  </mask>
  <g mask="url(#a)">
    <path fill="#6C6C6C" d="M4.833 20.542h19.333v-7.25H4.833v7.25Zm15.708-1.813c.503 0 .931-.176 1.284-.528.352-.353.529-.78.529-1.284s-.177-.932-.53-1.284a1.748 1.748 0 0 0-1.283-.529c-.503 0-.931.177-1.284.529-.352.352-.529.78-.529 1.284 0 .503.177.931.53 1.284.352.352.78.528 1.283.528Zm6.042-7.854h-3.414l-2.416-2.417H8.246L5.83 10.875H2.416l4.139-4.138a2.386 2.386 0 0 1 1.692-.695h12.506a2.386 2.386 0 0 1 1.691.695l4.139 4.138ZM4.833 22.958a2.327 2.327 0 0 1-1.707-.71 2.327 2.327 0 0 1-.71-1.706v-9.667h24.167v9.667c0 .664-.237 1.233-.71 1.706a2.327 2.327 0 0 1-1.707.71H4.833Z"/>
  </g>
</svg>
