<svg xmlns="http://www.w3.org/2000/svg" width="29" height="29" fill="none" viewBox="0 0 29 29">
  <mask id="a" width="29" height="29" x="0" y="0" maskUnits="userSpaceOnUse" style="mask-type:alpha">
    <path fill="#D9D9D9" d="M0 0h29v29H0z"/>
  </mask>
  <g mask="url(#a)">
    <path fill="#6C6C6C" d="M8.458 21.75a1.17 1.17 0 0 1-.861-.347 1.17 1.17 0 0 1-.348-.861v-2.417h15.709V7.25h2.416c.343 0 .63.116.861.347.232.232.348.519.348.861v18.125l-4.834-4.833H8.458Zm-6.042-1.208V3.625c0-.342.116-.63.347-.86a1.17 1.17 0 0 1 .861-.348h15.709c.342 0 .629.116.86.347.232.232.348.519.348.861V14.5c0 .342-.116.63-.347.861a1.17 1.17 0 0 1-.861.347H7.249l-4.833 4.834Zm15.708-7.25V4.833H4.833v8.459h13.291Z"/>
  </g>
</svg>
